# Blender 3.3.1
# www.blender.org
mtllib hand.mtl
o Cube
v 1.000000 1.000000 -4.500000
v 1.000000 -1.000000 -4.500000
v 1.000000 1.000000 1.000000
v 1.000000 -1.000000 1.000000
v -1.000000 1.000000 -4.500000
v -1.000000 -1.000000 -4.499999
v -1.000000 1.000000 1.000000
v -1.000000 -1.000000 1.000000
vn -0.0000 1.0000 -0.0000
vn -0.0000 -0.0000 1.0000
vn -1.0000 -0.0000 -0.0000
vn -0.0000 -1.0000 -0.0000
vn 1.0000 -0.0000 -0.0000
vn -0.0000 -0.0000 -1.0000
vt 0.812744 0.500000
vt 0.687589 0.500149
vt 0.750578 0.749190
vt 0.749923 0.500061
vt 0.625089 0.500149
vt 0.750526 0.688278
vt 0.812744 0.687539
vt 0.750111 0.687539
vt 0.687589 0.687649
vt 0.687611 0.687539
vt 0.750115 0.687542
vt 0.625089 0.687649
vt 0.875000 0.500000
vt 0.750182 0.499994
vt 0.812096 0.749498
vt 0.812593 0.500040
vt 0.687423 0.500061
vt 0.812044 0.688585
vt 0.875000 0.687539
vt 0.750111 0.750039
vt 0.750182 0.687494
vt 0.687611 0.750039
vt 0.812593 0.687540
vt 0.687615 0.687542
s 0
usemtl Material
f 1/1/1 5/13/1 7/19/1 3/7/1
f 4/10/2 3/8/2 7/20/2 8/22/2
f 8/23/3 7/21/3 5/14/3 6/16/3
f 6/17/4 2/4/4 4/11/4 8/24/4
f 2/5/5 1/2/5 3/9/5 4/12/5
f 6/18/6 5/15/6 1/3/6 2/6/6
